<?xml version="1.0" encoding="UTF-8"?> <svg xmlns="http://www.w3.org/2000/svg" viewBox="0 0 599 552"><g id="Page-1" fill="none" fill-rule="evenodd"><path id="Fill-1" fill="#EB5527" d="M189.16 212.16c.696.005 1.394.014 2.096.014 72.113 0 144.235 0 216.352.005.648 0 1.292.04 1.94.06-.32 1.1-.61 2.2-.965 3.29-2.56 7.9-5.146 15.8-7.712 23.7-3.82 11.78-7.63 23.57-11.46 35.35-2.56 7.9-5.14 15.8-7.71 23.7-3.81 11.73-7.61 23.47-11.42 35.2-3.78 11.64-7.56 23.28-11.34 34.91-3.91 12.01-7.8 24.03-11.71 36.05-3.78 11.64-7.56 23.27-11.34 34.91-3.81 11.73-7.61 23.47-11.43 35.2-3.88 11.97-7.77 23.94-11.67 35.91-3.56 10.92-7.2 21.83-10.69 32.78-.69 2.15-1.72 4.25-1.83 6.57l-.01-.007c-.37.19-.47.55-.572.91l-.045.48-.3-.018c.065-.876-.804-1.06-1.21-1.58-5.06-6.516-10.145-13.01-15.21-19.52-5.032-6.47-10.032-12.966-15.076-19.43-5.932-7.6-11.913-15.16-17.84-22.76-5.746-7.37-11.43-14.778-17.18-22.144-8.01-10.26-16.063-20.486-24.08-30.745-7.306-9.36-14.58-18.75-21.88-28.11-5.615-7.22-11.24-14.426-16.863-21.636-4.242-5.45-8.48-10.9-12.73-16.343-5.566-7.12-11.142-14.24-16.71-21.37-4.033-5.17-8.06-10.35-12.1-15.52-5.53-7.08-11.09-14.16-16.613-21.25-4.37-5.603-8.713-11.22-13.08-16.83-5.23-6.695-10.48-13.38-15.706-20.075-4.34-5.56-8.66-11.14-12.99-16.71-5.56-7.13-11.137-14.26-16.7-21.38-3.736-4.78-7.5-9.532-11.2-14.332-2.37-3.07-4.91-6.01-7.05-9.24.65 0 1.29-.01 1.94-.01h149.87c.75 0 1.5-.03 2.246-.04"></path><path id="Fill-3" fill="#F26E2A" d="M300.237 549.84c.107-2.333 1.14-4.42 1.83-6.577 3.492-10.95 7.126-21.854 10.692-32.78 3.9-11.966 7.79-23.937 11.67-35.908 3.81-11.732 7.61-23.468 11.43-35.205l11.34-34.912c3.9-12.02 7.8-24.04 11.71-36.054 3.78-11.644 7.56-23.278 11.34-34.917 3.81-11.732 7.61-23.473 11.42-35.205 2.57-7.897 5.15-15.795 7.72-23.697 3.82-11.78 7.64-23.566 11.46-35.352 2.56-7.897 5.15-15.795 7.71-23.697.35-1.088.64-2.19.96-3.293.06-.054.13-.073.22-.063.694.01 1.392.024 2.09.024h150.02c.65 0 1.3.02 1.945.03-.39 1.043-1.23 1.78-1.893 2.633-7.097 9.08-14.18 18.166-21.27 27.254l-21.266 27.26c-7.087 9.09-14.18 18.17-21.267 27.26-7.79 9.99-15.58 19.98-23.37 29.96-7.09 9.09-14.188 18.17-21.27 27.27-6.59 8.47-13.17 16.94-19.76 25.41-5.246 6.75-10.495 13.49-15.75 20.23-3.94 5.06-7.89 10.1-11.836 15.15-5.547 7.08-11.1 14.16-16.63 21.24-4.737 6.07-9.44 12.16-14.17 18.24-5.62 7.21-11.25 14.41-16.87 21.62-4.277 5.48-8.54 10.98-12.82 16.46-5.57 7.13-11.14 14.24-16.71 21.36-4.034 5.17-8.06 10.35-12.08 15.53-5.367 6.9-10.73 13.81-16.09 20.71l-.54.05z"></path><path id="Fill-5" fill="#F26E2A" d="M298.398 549.84c-.108-2.333-1.142-4.42-1.83-6.577-3.492-10.95-7.126-21.854-10.692-32.78-3.907-11.966-7.79-23.937-11.673-35.908-3.815-11.732-7.615-23.468-11.43-35.205-3.78-11.64-7.565-23.273-11.346-34.912-3.907-12.02-7.805-24.04-11.712-36.054-3.78-11.644-7.566-23.278-11.347-34.917-3.81-11.732-7.614-23.473-11.424-35.205-2.57-7.897-5.15-15.795-7.717-23.697-3.824-11.78-7.64-23.566-11.463-35.352-2.566-7.897-5.152-15.795-7.718-23.697-.35-1.088-.64-2.19-.96-3.293-.064-.054-.137-.073-.225-.063-.69.01-1.39.024-2.09.024H36.75c-.648 0-1.297.02-1.946.03.397 1.043 1.226 1.78 1.9 2.633 7.097 9.08 14.18 18.166 21.267 27.254l21.27 27.26c7.09 9.09 14.18 18.17 21.27 27.26 7.79 9.99 15.58 19.98 23.37 29.96 7.09 9.09 14.19 18.17 21.27 27.27 6.59 8.47 13.17 16.94 19.76 25.41 5.25 6.75 10.5 13.49 15.75 20.23 3.95 5.06 7.89 10.1 11.84 15.15 5.54 7.08 11.1 14.16 16.63 21.24 4.73 6.07 9.44 12.16 14.17 18.24 5.62 7.21 11.25 14.41 16.87 21.62 4.28 5.48 8.54 10.98 12.82 16.46 5.56 7.13 11.14 14.24 16.71 21.36 4.04 5.17 8.06 10.35 12.09 15.53 5.37 6.9 10.73 13.81 16.09 20.71l.55.05z"></path><path id="Fill-7" fill="#F9A127" d="M35.09 212.22c2.147 3.228 4.683 6.165 7.05 9.238 3.697 4.8 7.462 9.55 11.194 14.332 5.566 7.122 11.137 14.244 16.698 21.38 4.336 5.56 8.653 11.147 12.99 16.708 5.23 6.697 10.478 13.38 15.707 20.078 4.36 5.6 8.71 11.224 13.08 16.83 5.52 7.092 11.08 14.165 16.61 21.253 4.04 5.17 8.06 10.35 12.1 15.52 5.56 7.12 11.14 14.25 16.7 21.37 4.25 5.45 8.49 10.89 12.73 16.34l16.86 21.63c7.29 9.36 14.57 18.75 21.87 28.11 8.01 10.26 16.07 20.48 24.08 30.74 5.75 7.36 11.43 14.77 17.18 22.14 5.93 7.6 11.91 15.16 17.84 22.76 5.04 6.46 10.04 12.96 15.08 19.43 5.06 6.51 10.15 13 15.21 19.52.4.52 1.27.7 1.21 1.58-3.85-2.41-7.41-5.23-11.08-7.89C235.77 505.2 183.34 467.1 130.92 429c-39.75-28.9-79.497-57.79-119.287-86.63-3.53-2.56-6.752-5.278-8.82-9.18C.083 328-.857 322.44.87 316.82c3.754-12.24 7.808-24.385 11.76-36.566 7.204-22.224 14.423-44.45 21.643-66.668.152-.468.37-.917.562-1.37l.127-.006.13.006z"></path><path id="Fill-9" fill="#F9A127" d="M300.78 549.796c5.36-6.907 10.722-13.81 16.088-20.712 4.03-5.176 8.053-10.35 12.087-15.522 5.566-7.122 11.142-14.24 16.708-21.366 4.278-5.478 8.546-10.976 12.82-16.46 5.62-7.203 11.253-14.403 16.868-21.613 4.74-6.078 9.44-12.17 14.17-18.244 5.54-7.09 11.09-14.16 16.63-21.24 3.95-5.05 7.9-10.1 11.84-15.15 5.26-6.74 10.5-13.49 15.75-20.23 6.59-8.47 13.17-16.95 19.76-25.41 7.09-9.09 14.18-18.17 21.27-27.26 7.79-9.99 15.58-19.98 23.37-29.96 7.09-9.09 14.18-18.18 21.27-27.26 7.09-9.09 14.18-18.17 21.27-27.26s14.18-18.18 21.28-27.26c.67-.86 1.5-1.59 1.9-2.64.09-.01.19-.02.287-.02 1.43 4.3 2.885 8.58 4.285 12.88 8.91 27.38 17.806 54.77 26.694 82.15 1.077 3.31 2.443 6.58 3.087 9.99 1.84 9.74-1.005 17.91-9.16 23.85-38.85 28.26-77.73 56.49-116.59 84.73-35.64 25.9-71.28 51.794-106.914 77.692-21.23 15.424-42.46 30.854-63.685 46.28-.2.144-.43.24-.65.35l-.4-.35"></path><path id="Fill-11" fill="#E04429" d="M409.872 211.9c2.326-7.24 4.64-14.488 6.98-21.727 2.732-8.434 5.493-16.858 8.234-25.292 5.054-15.56 10.103-31.13 15.16-46.69 2.59-7.98 5.187-15.97 7.777-23.95 3.85-11.83 7.693-23.66 11.536-35.5 5.48-16.89 10.98-33.78 16.46-50.67 1.28-3.93 3.75-6.82 7.84-7.67 5.86-1.24 11.4.4 13.73 7.01 2.71 7.69 5.04 15.53 7.57 23.29 2.9 8.88 5.81 17.76 8.7 26.65 2.22 6.81 4.33 13.67 6.59 20.47 5.002 15.06 9.84 30.18 14.78 45.26 6.44 19.67 12.81 39.36 19.2 59.05 3.05 9.406 6.1 18.816 9.14 28.22.12.376.21.767.31 1.15-.4.69-1.07.426-1.62.426-50.81.01-101.61.006-152.42.006"></path><path id="Fill-13" fill="#E04429" d="M35.03 211.524c2.132-6.678 4.25-13.36 6.41-20.024 3.844-11.85 7.718-23.683 11.566-35.522 5.093-15.66 10.17-31.322 15.26-46.98C74.66 89.313 81.056 69.63 87.45 49.942c4.517-13.907 9.04-27.81 13.537-41.722 1.288-3.99 3.737-6.96 7.888-7.833 5.83-1.224 11.346.303 13.746 6.99 2.4 6.688 4.39 13.513 6.6 20.264 2.52 7.67 5 15.34 7.53 22.99 2.47 7.48 4.89 14.96 7.32 22.45 6.36 19.59 12.72 39.18 19.09 58.77 7.73 23.8 15.48 47.61 23.2 71.41.93 2.88 1.81 5.77 2.71 8.65-50.74 0-101.48 0-152.22-.01-.6 0-1.31.3-1.8-.36"></path></g></svg> 